# xmcd
#
# Track frame offsets:
#	150
#	42076
#	108612
#	147924
#	181213
#	218770
#	261781
#
# Disc length: 4002 seconds
#
# Revision: 1
# Processed by: cddbd v1.5.1PL0 Copyright (c) Steve Scherf et al.
# Submitted via: audiograbber 1.83.01
#
DISCID=610fa007
DTITLE=Sacred Earth - Pamanyungun World Music
DYEAR=2003
DGENRE=New Age
TTITLE0=Sacred Earth
TTITLE1=Sri Ram Jaya Ram
TTITLE2=Bringers of the Rain
TTITLE3=Ra and Temu Hammakis
TTITLE4=Pamanyungan
TTITLE5=Divine Mother
TTITLE6=Savasana
EXTD=YEAR: 2003
EXTT0=
EXTT1=
EXTT2=
EXTT3=
EXTT4=
EXTT5=
EXTT6=
PLAYORDER=
